<?xml version="1.0" standalone="no"?>
<!DOCTYPE svg PUBLIC "-//W3C//DTD SVG 20010904//EN"
 "http://www.w3.org/TR/2001/REC-SVG-20010904/DTD/svg10.dtd">
<svg version="1.0" xmlns="http://www.w3.org/2000/svg"
 width="100.000000pt" height="100.000000pt" viewBox="0 0 100.000000 100.000000"
 preserveAspectRatio="xMidYMid meet">
<metadata>
Created by potrace 1.16, written by Peter Selinger 2001-2019
</metadata>
<g transform="translate(0.000000,100.000000) scale(0.100000,-0.100000)"
fill="#000000" stroke="none">
<path d="M515 715 c-22 -11 -42 -23 -45 -26 -3 -3 -29 -19 -58 -36 l-54 -30
30 -22 c17 -11 33 -21 36 -21 11 0 126 -71 126 -78 0 -4 -27 -22 -60 -41 -32
-19 -56 -39 -53 -44 3 -6 1 -7 -5 -3 -7 4 -25 -1 -42 -11 -29 -17 -39 -33 -21
-33 4 0 48 -23 96 -51 l89 -51 35 20 c332 187 357 206 314 244 -10 8 -92 58
-183 110 l-165 94 -40 -21z"/>
</g>
</svg>
